<svg t="1648520851573" class="icon" viewBox="0 0 1024 1024" version="1.1" xmlns="http://www.w3.org/2000/svg" p-id="1140" width="200" height="200"><path d="M511.857 150.01c238.494 0 431.83 193.337 431.83 431.832s-193.336 431.826-431.83 431.826V150.01z" fill="#ED0000" p-id="1141"></path><path d="M511.857 150.01c-238.495 0-431.831 193.337-431.831 431.832s193.336 431.826 431.83 431.826V150.01z" fill="#EB4E41" p-id="1142"></path><path d="M483.082 180.777c-22.958-49.546 21.607-118.989 99.543-155.11C660.562-10.45 742.36 0.435 765.317 49.98L483.082 180.777z" fill="#30C03F" p-id="1143"></path><path d="M483.082 180.777c22.958 49.546 104.755 60.431 182.692 24.315 77.937-36.117 122.506-105.564 99.543-155.11L483.082 180.776z" fill="#97CF43" p-id="1144"></path><path d="M309.443 351.33a28.012 28.012 0 1 0 56.023 0 28.012 28.012 0 1 0-56.023 0zM483.845 351.33a28.012 28.012 0 1 0 56.023 0 28.012 28.012 0 1 0-56.023 0zM658.253 351.33a28.012 28.012 0 1 0 56.023 0 28.012 28.012 0 1 0-56.023 0zM208.189 466.58a28.012 28.012 0 1 0 56.023 0 28.012 28.012 0 1 0-56.023 0zM391.962 466.58a28.012 28.012 0 1 0 56.023 0 28.012 28.012 0 1 0-56.023 0zM575.734 466.58a28.012 28.012 0 1 0 56.023 0 28.012 28.012 0 1 0-56.023 0zM759.506 466.58a28.012 28.012 0 1 0 56.023 0 28.012 28.012 0 1 0-56.023 0zM309.443 581.837a28.012 28.012 0 1 0 56.023 0 28.012 28.012 0 1 0-56.023 0zM483.845 581.837a28.012 28.012 0 1 0 56.023 0 28.012 28.012 0 1 0-56.023 0zM658.253 581.837a28.012 28.012 0 1 0 56.023 0 28.012 28.012 0 1 0-56.023 0zM309.443 812.35a28.012 28.012 0 1 0 56.023 0 28.012 28.012 0 1 0-56.023 0zM483.845 812.35a28.012 28.012 0 1 0 56.023 0 28.012 28.012 0 1 0-56.023 0zM658.253 812.35a28.012 28.012 0 1 0 56.023 0 28.012 28.012 0 1 0-56.023 0zM208.189 697.093a28.012 28.012 0 1 0 56.023 0 28.012 28.012 0 1 0-56.023 0zM391.962 697.093a28.012 28.012 0 1 0 56.023 0 28.012 28.012 0 1 0-56.023 0zM575.734 697.093a28.012 28.012 0 1 0 56.023 0 28.012 28.012 0 1 0-56.023 0zM759.506 697.093a28.012 28.012 0 1 0 56.023 0 28.012 28.012 0 1 0-56.023 0z" fill="#770000" p-id="1145"></path></svg>