<?xml version="1.0" standalone="no"?><!DOCTYPE svg PUBLIC "-//W3C//DTD SVG 1.1//EN" "http://www.w3.org/Graphics/SVG/1.1/DTD/svg11.dtd"><svg t="1648216963831" class="icon" viewBox="0 0 4442 1024" version="1.1" xmlns="http://www.w3.org/2000/svg" p-id="1928" xmlns:xlink="http://www.w3.org/1999/xlink" width="867.578125" height="200"><defs><style type="text/css">:not(pre) { -webkit-text-stroke: 0px !important; }
</style></defs><path d="M1581.535792 133.275488c-15.548807-15.548807-35.54013-26.655098-55.531454-35.54013-15.548807-8.885033-33.318872-4.442516-42.203904 8.885032L1363.852495 266.550976l-8.885033 11.106291c-13.327549 17.770065-33.318872 26.655098-55.531453 26.655097h-22.212582c-62.195228 2.221258-122.169197 33.318872-159.930585 84.40781-31.097614 39.982646-44.425163 91.071584-44.425163 139.939262 0 8.885033 6.663774 17.770065 15.548807 19.991323 17.770065 8.885033 28.876356 24.433839 31.097614 44.425163 6.663774 28.876356-13.327549 57.752711-42.203905 64.416486-31.097614 8.885033-62.195228-8.885033-71.08026-37.761388v-2.221259c-4.442516-17.770065 0-33.318872 11.106291-46.64642 6.663774-6.663774 8.885033-17.770065 8.885032-26.655098-4.442516-64.416486 13.327549-131.05423 53.310195-182.143167 48.867679-64.416486 124.390456-104.399132 206.577007-104.399132 15.548807 0 28.876356-8.885033 37.761388-19.991324l111.062907-146.603036c6.663774-8.885033 4.442516-22.212581-4.442516-28.876356-2.221258-2.221258-4.442516-2.221258-6.663775-4.442517-186.585683-55.531453-393.16269 11.106291-513.110629 171.036877-162.151844 211.019523-122.169197 513.110629 88.850326 675.262473 19.991323 13.327549 42.203905 28.876356 62.195227 42.203904 13.327549 6.663774 31.097614 4.442516 42.203905-8.885032l119.947939-162.151844 8.885033-11.106291c13.327549-17.770065 33.318872-26.655098 55.531453-26.655097h24.433839c62.195228-2.221258 122.169197-33.318872 157.709328-84.407809 31.097614-39.982646 46.646421-91.071584 44.425163-139.939263 0-8.885033-6.663774-17.770065-13.327549-19.991323-17.770065-8.885033-31.097614-24.433839-31.097614-44.425163-6.663774-28.876356 11.106291-57.752711 42.203905-64.416486 31.097614-8.885033 62.195228 8.885033 71.08026 37.761389 2.221258 17.770065 0 33.318872-13.327549 46.64642-6.663774 6.663774-8.885033 17.770065-8.885032 26.655098 6.663774 64.416486-13.327549 128.832972-51.088938 182.143167-48.867679 64.416486-124.390456 104.399132-206.577006 104.399132-15.548807 0-28.876356 8.885033-37.761388 19.991324l-111.062907 146.603036c-6.663774 8.885033-4.442516 22.212581 4.442516 28.876356 2.221258 2.221258 4.442516 2.221258 6.663775 4.442516 193.249458 57.752711 399.826464-11.106291 519.774403-173.258134 148.824295-213.240781 106.62039-513.110629-104.399132-675.262473z m795.210412 131.05423v-11.106291c0-6.663774-4.442516-13.327549-13.327549-15.548807H1983.583514c-6.663774 0-13.327549 4.442516-15.548807 13.327549v24.43384c0 6.663774 4.442516 13.327549 13.327549 15.548807h319.861171c6.663774 0 13.327549 4.442516 15.548807 13.327548v4.442517c-17.770065 102.177874-59.97397 197.691974-126.611713 277.657267-2.221258 6.663774-11.106291 6.663774-17.770065 0l-2.221259-2.221259c-51.088937-66.637744-86.629067-142.160521-104.399132-224.347071 0-8.885033-8.885033-11.106291-17.770065-11.106291h-22.212581c-8.885033 0-15.548807 8.885033-13.327549 17.770065 19.991323 93.292842 59.97397 182.143167 119.947939 257.665944 6.663774 6.663774 6.663774 15.548807 0 19.991323-64.416486 62.195228-144.381779 106.62039-233.232104 122.169197-8.885033 0-11.106291 8.885033-11.106291 15.548807v22.212582c0 8.885033 8.885033 15.548807 17.770065 15.548807 99.956616-17.770065 193.249458-64.416486 266.550977-137.718005 4.442516-6.663774 13.327549-6.663774 19.991323 0 64.416486 62.195228 142.160521 108.841649 226.568329 135.496746 6.663774 2.221258 13.327549 0 17.770066-6.663774v-2.221258l6.663774-22.212581c2.221258-6.663774-2.221258-15.548807-8.885033-17.770065-77.744035-24.433839-148.824295-66.637744-206.577006-122.169198-6.663774-6.663774-6.663774-15.548807 0-19.991323 86.629067-104.399132 139.939262-228.789588 148.824295-362.065076z m257.665944-51.088937h-22.212582c-6.663774 0-13.327549 4.442516-15.548807 13.327549v82.186551c0 6.663774-4.442516 13.327549-13.327549 15.548807h-55.531453c-6.663774 0-13.327549 4.442516-13.327549 13.327548v26.655098c0 8.885033 4.442516 13.327549 13.327549 15.548807h53.310195c6.663774 0 13.327549 4.442516 13.327549 13.327549v115.505423c0 6.663774-4.442516 13.327549-13.327549 15.548807h-55.531453c-6.663774 0-13.327549 4.442516-13.327549 13.327549v28.876355c0 8.885033 4.442516 13.327549 13.327549 15.548807h53.310195c6.663774 0 13.327549 4.442516 13.327549 13.327549v113.284165c0 24.433839-8.885033 64.416486-71.08026 66.637744-6.663774 0-13.327549 4.442516-13.327549 13.327549v24.433839c0 8.885033 8.885033 15.548807 17.770065 15.548807 59.97397-6.663774 122.169197-37.761388 122.169197-119.947939v-111.062907c0-6.663774 4.442516-13.327549 13.327549-13.327549h48.867679c8.885033 0 13.327549-6.663774 13.327549-13.327548v-24.43384c0-6.663774-4.442516-13.327549-13.327549-13.327549h-44.425163c-6.663774 0-13.327549-4.442516-13.327548-13.327549V399.826464c0-6.663774 4.442516-13.327549 13.327548-13.327549h48.867679c6.663774 0 13.327549-4.442516 13.327549-13.327548v-24.43384c0-6.663774-4.442516-13.327549-13.327549-15.548807H2665.509761c-6.663774 0-13.327549-4.442516-13.327548-13.327549v-82.186551c-2.221258-17.770065-8.885033-24.433839-17.770065-24.433839z m122.169197 590.854664c0 6.663774 4.442516 13.327549 13.327549 15.548807h171.036876c73.301518 2.221258 133.275488-55.531453 135.496746-128.832972v-355.401302c0-6.663774-4.442516-13.327549-13.327549-13.327548h-290.984815c-6.663774 0-13.327549 4.442516-13.327549 13.327548v2.221258l-2.221258 466.464209z m182.143167-37.761389H2820.997831c-8.885033 0-13.327549-4.442516-15.548807-13.327548v-162.151844c0-8.885033 6.663774-13.327549 13.327549-13.327549h186.585683c6.663774 0 13.327549 4.442516 15.548807 13.327549v102.177874c0 42.203905-37.761388 75.522777-82.186551 73.301518 2.221258 0 0 0 0 0z m82.186551-379.835141V510.889371c0 6.663774-4.442516 13.327549-13.327549 15.548807H2820.997831c-8.885033 0-13.327549-4.442516-15.548807-13.327549v-124.390455c0-8.885033 4.442516-13.327549 13.327549-15.548807h186.585683c8.885033-2.221258 15.548807 4.442516 15.548807 13.327548 0-2.221258 0 0 0 0z m-35.54013-173.258134h-148.824295c-6.663774 0-13.327549 4.442516-13.327549 13.327549v26.655097c0 6.663774 4.442516 13.327549 13.327549 13.327549h151.045553c6.663774 0 13.327549-6.663774 13.327549-13.327549v-24.433839c0-6.663774-6.663774-13.327549-15.548807-15.548807 2.221258 0 0 0 0 0z m570.86334 24.433839h-308.75488c-6.663774 0-13.327549 4.442516-15.548807 11.106291v26.655098c0 6.663774 4.442516 13.327549 13.327548 15.548807h310.976139c6.663774 0 13.327549-4.442516 13.327549-13.327549v-24.43384c2.221258-6.663774-2.221258-13.327549-8.885032-15.548807h-4.442517z m-131.05423 266.550977h215.462039c6.663774 0 13.327549-4.442516 13.327549-13.327549V466.464208c0-6.663774-4.442516-13.327549-13.327549-13.327549h-479.791757c-6.663774 0-13.327549 4.442516-13.327548 13.327549v24.43384c0 6.663774 4.442516 13.327549 13.327548 13.327549h151.045554c8.885033 0 15.548807 6.663774 15.548806 13.327548 0 4.442516 0 6.663774-4.442516 11.106291l-99.956616 177.700651c-2.221258 2.221258-4.442516 6.663774-6.663774 11.10629-8.885033 24.433839-4.442516 51.088937 11.10629 71.080261 15.548807 24.433839 42.203905 37.761388 71.080261 35.54013h268.772234c11.106291 0 24.433839-6.663774 28.876356-17.770065 4.442516-11.106291 6.663774-22.212581 2.221258-31.097614l-62.195228-126.611714c-2.221258-6.663774-8.885033-11.106291-15.548807-8.885032-2.221258 0-4.442516 2.221258-4.442516 2.221258l-19.991323 11.106291c-6.663774 2.221258-11.106291 8.885033-8.885033 15.548806 0 2.221258 2.221258 4.442516 2.221258 6.663775l37.761389 71.08026c6.663774 8.885033-2.221258 19.991323-15.548807 19.991323h-215.462039c-11.106291 0-19.991323-4.442516-26.655098-11.10629-4.442516-6.663774-4.442516-13.327549-2.221258-19.991323 0-2.221258 0-2.221258 2.221258-2.221259l119.947939-208.798264c8.885033-13.327549 22.212581-19.991323 35.54013-19.991323z" fill="#00a0ff" p-id="1929"></path></svg>